<?xml version="1.0" standalone="no"?>
<!DOCTYPE svg PUBLIC "-//W3C//DTD SVG 20010904//EN"
 "http://www.w3.org/TR/2001/REC-SVG-20010904/DTD/svg10.dtd">
<svg version="1.0" xmlns="http://www.w3.org/2000/svg"
 width="681.000000pt" height="292.000000pt" viewBox="0 0 681.000000 292.000000"
 preserveAspectRatio="xMidYMid meet">

<g transform="translate(0.000000,292.000000) scale(0.100000,-0.100000)"
fill="#000000" stroke="none">
<path d="M131 2896 c-14 -17 -19 -64 -31 -291 -11 -209 -24 -440 -40 -700 -9
-154 -30 -523 -47 -840 -9 -178 -27 -165 233 -165 l214 0 11 24 c11 24 10 71
-21 716 -6 113 -12 213 -14 223 -3 10 6 34 19 53 33 49 63 132 88 244 29 132
32 490 4 590 -21 73 -59 145 -82 154 -8 3 -85 5 -169 5 -115 0 -157 -3 -165
-13z"/>
<path d="M935 2898 c-11 -7 -26 -18 -33 -25 -24 -24 -79 -157 -100 -243 -12
-47 -80 -441 -152 -877 -118 -708 -130 -795 -118 -820 l13 -28 211 -3 c211 -2
211 -2 227 21 11 17 18 78 26 232 32 579 42 754 51 905 41 660 45 813 24 835
-19 18 -119 20 -149 3z"/>
<path d="M1799 2873 c-82 -74 -159 -302 -189 -561 -17 -142 -43 -574 -57 -944
-8 -210 27 -388 86 -447 19 -19 33 -21 180 -21 132 0 161 3 172 16 15 19 31
237 64 914 3 47 9 157 15 245 6 88 15 225 20 305 20 301 24 498 10 515 -10 12
-37 15 -136 15 l-124 0 -41 -37z"/>
<path d="M2181 2893 c-18 -35 -18 -42 -56 -743 -8 -151 -19 -351 -25 -445 -24
-380 -30 -496 -36 -630 -8 -173 -7 -175 96 -175 66 0 70 1 93 33 14 17 28 42
32 55 9 31 21 28 34 -10 22 -62 47 -78 122 -78 41 0 70 5 77 12 16 21 21 64
32 263 5 105 14 264 20 355 29 470 57 980 67 1196 8 180 6 184 -85 184 -61 0
-71 -3 -95 -27 -14 -16 -32 -44 -40 -63 l-15 -34 -16 39 c-30 72 -50 85 -127
85 -55 0 -70 -3 -78 -17z"/>
<path d="M2999 2900 c-42 -24 -100 -147 -134 -279 -20 -80 -275 -1610 -275
-1652 0 -17 5 -39 10 -50 10 -18 23 -19 225 -19 194 0 215 2 224 18 9 17 20
163 41 517 6 99 15 245 20 325 5 80 12 210 15 290 3 80 10 199 15 265 10 125
25 475 23 533 -2 51 -17 62 -87 62 -33 0 -68 -5 -77 -10z m108 -342 c-2 -13
-4 -5 -4 17 -1 22 1 32 4 23 2 -10 2 -28 0 -40z m-40 -670 c-3 -8 -6 -5 -6 6
-1 11 2 17 5 13 3 -3 4 -12 1 -19z m0 -50 c-3 -8 -6 -5 -6 6 -1 11 2 17 5 13
3 -3 4 -12 1 -19z m-10 -200 c-2 -18 -4 -6 -4 27 0 33 2 48 4 33 2 -15 2 -42
0 -60z m-20 -330 c-2 -18 -4 -6 -4 27 0 33 2 48 4 33 2 -15 2 -42 0 -60z m-20
-325 c-2 -16 -4 -3 -4 27 0 30 2 43 4 28 2 -16 2 -40 0 -55z"/>
<path d="M3400 2894 c-17 -20 -21 -70 -65 -869 -8 -148 -19 -344 -25 -435 -39
-642 -39 -652 -21 -674 10 -12 31 -16 80 -16 78 0 99 12 126 69 24 48 31 51
38 13 3 -15 18 -40 33 -55 23 -24 35 -27 90 -27 97 0 99 4 109 220 3 69 10
197 15 285 5 88 13 223 17 300 l8 140 6 -220 c14 -474 99 -725 246 -725 110 0
218 198 287 530 25 115 56 356 56 427 0 25 3 34 10 27 10 -10 2 -223 -30 -768
-14 -225 -19 -216 125 -216 80 0 105 3 115 15 7 9 17 56 21 107 8 86 12 153
40 643 10 186 12 202 34 225 66 72 96 210 115 520 9 143 9 215 1 270 -14 104
-37 172 -65 203 -23 25 -27 26 -154 26 l-131 1 -31 -38 c-31 -38 -80 -174 -80
-225 0 -40 -17 -33 -23 11 -10 75 -48 154 -98 204 -41 41 -54 48 -87 48 -50 0
-96 -35 -142 -109 -19 -31 -37 -60 -39 -66 -2 -5 -11 -28 -21 -50 -54 -124
-105 -339 -125 -528 -13 -115 -15 -47 -5 124 34 580 34 588 15 609 -14 16 -31
20 -82 20 -56 0 -67 -3 -88 -25 -13 -14 -31 -43 -41 -63 l-17 -37 -10 30 c-5
17 -20 45 -34 63 -23 31 -27 32 -92 32 -50 0 -72 -4 -81 -16z m31 -139 c-5
-50 -9 -64 -10 -39 -1 46 11 145 16 129 1 -6 -1 -46 -6 -90z m110 78 c13 -16
12 -17 -3 -4 -17 13 -22 21 -14 21 2 0 10 -8 17 -17z m275 -50 c-6 -62 -22
-341 -31 -533 -2 -41 -9 -160 -15 -265 -24 -401 -29 -488 -40 -730 -6 -137
-13 -260 -16 -272 -4 -20 -10 -23 -58 -23 -45 0 -56 4 -68 23 -40 62 -53 196
-39 403 6 88 16 249 22 359 6 110 14 265 19 345 5 80 13 230 19 334 6 104 16
207 22 230 24 93 32 115 40 110 5 -3 7 1 4 8 -3 7 4 28 15 46 18 30 23 32 76
32 l57 0 -7 -67z m384 50 c14 -9 31 -24 38 -33 23 -27 60 -116 71 -171 6 -30
18 -87 26 -128 8 -40 19 -162 26 -270 28 -503 -89 -1097 -243 -1237 -48 -43
-78 -43 -126 0 -29 27 -43 51 -64 117 -40 127 -45 152 -63 314 -24 214 -12
602 25 825 25 143 87 375 110 405 4 6 11 21 15 35 12 39 71 121 102 141 35 23
52 24 83 2z m304 0 c-2 -10 -8 -106 -14 -213 -22 -434 -30 -558 -36 -624 -6
-68 -7 -69 -24 -47 -35 48 -45 117 -43 321 3 278 31 460 83 546 23 36 41 45
34 17z m151 -28 c37 -74 26 -508 -35 -1420 -5 -77 -12 -204 -16 -282 l-6 -143
-95 0 -95 0 6 31 c3 17 10 126 16 242 5 117 14 284 19 372 6 88 15 241 21 340
6 99 15 245 20 325 5 80 15 243 22 363 l11 218 56 -3 c54 -3 57 -4 76 -43z
m90 22 c47 -72 58 -277 30 -565 -18 -192 -44 -284 -91 -322 -15 -13 -16 -10
-11 45 4 33 9 116 12 185 3 69 10 197 16 285 10 135 9 175 -4 255 -8 52 -18
105 -22 118 -7 20 -4 22 24 22 21 0 35 -7 46 -23z m-1165 -98 c17 -78 10 -320
-29 -940 -6 -85 -15 -246 -21 -359 -14 -257 -36 -375 -82 -443 -17 -23 -26
-27 -66 -26 -39 1 -42 2 -22 9 14 4 20 8 13 9 -13 1 -12 69 2 91 4 7 2 16 -6
21 -11 7 -10 9 5 9 13 0 16 5 12 17 -4 9 -1 20 6 25 10 6 10 8 0 8 -9 0 -8 6
3 24 11 17 13 26 5 31 -8 5 -7 11 2 23 11 13 11 15 -2 8 -8 -4 -6 -1 4 8 17
14 18 16 2 22 -16 6 -16 7 0 19 11 8 15 20 11 34 -3 14 -1 21 10 21 9 0 11 5
7 12 -13 20 -12 48 2 48 13 0 13 17 1 38 -5 6 -4 12 0 12 5 0 10 12 11 28 1
15 4 39 6 55 2 15 -2 27 -8 28 -6 1 0 5 14 9 17 5 19 8 8 9 -19 1 -25 21 -7
21 6 0 9 7 6 14 -4 9 -1 13 7 10 9 -3 12 5 10 31 -2 20 0 33 5 31 10 -7 8 25
-4 43 -6 11 -4 13 8 8 11 -4 17 -1 17 9 0 8 -3 13 -7 11 -5 -3 -9 6 -9 19 -1
13 2 22 6 19 4 -3 4 11 0 30 -7 33 -7 35 13 30 12 -2 17 -2 10 1 -8 3 -9 15
-3 35 6 20 5 29 -3 29 -8 0 -9 3 -1 8 17 11 23 39 12 50 -8 8 -6 18 4 35 11
15 13 29 7 39 -6 11 -4 18 7 22 12 5 14 10 5 20 -6 7 -8 16 -4 19 3 4 7 24 9
44 1 21 7 81 13 133 16 142 14 394 -4 460 -17 63 -18 71 -6 50 5 -8 14 -40 21
-71z m-165 -279 c-4 -61 -10 -109 -12 -106 -3 3 -2 55 2 116 4 61 9 109 12
106 3 -2 2 -54 -2 -116z m-25 -421 c-10 -175 -22 -379 -34 -589 -3 -41 -8
-151 -12 -245 -3 -93 -10 -186 -14 -205 -12 -50 -4 130 30 685 16 275 29 509
30 534 0 13 2 22 5 19 3 -3 1 -93 -5 -199z"/>
<path d="M3640 2629 c0 -5 5 -7 10 -4 6 3 10 8 10 11 0 2 -4 4 -10 4 -5 0 -10
-5 -10 -11z"/>
<path d="M3627 2533 c-4 -3 -7 -11 -7 -17 0 -6 5 -5 12 2 6 6 9 14 7 17 -3 3
-9 2 -12 -2z"/>
<path d="M4097 2288 c-72 -67 -121 -347 -99 -568 16 -164 49 -232 103 -215 23
8 42 38 67 112 33 96 44 166 49 333 6 184 -11 291 -55 343 -20 23 -36 22 -65
-5z m47 -34 c8 -3 23 -29 33 -57 26 -76 26 -380 -1 -487 -33 -131 -77 -185
-116 -144 -81 88 -54 564 39 677 15 18 21 20 45 11z"/>
<path d="M3535 1990 c3 -5 8 -10 11 -10 2 0 4 5 4 10 0 6 -5 10 -11 10 -5 0
-7 -4 -4 -10z"/>
<path d="M5407 2892 c-12 -13 -18 -63 -27 -217 -6 -110 -15 -272 -21 -360 -5
-88 -16 -281 -24 -430 -8 -148 -19 -346 -25 -440 -5 -93 -14 -244 -19 -335
-13 -217 -17 -210 123 -210 86 0 105 3 118 18 16 18 24 107 49 542 6 107 14
242 17 300 l7 105 49 6 c51 5 72 23 99 84 38 83 37 83 31 36 -13 -94 -6 -514
11 -635 30 -220 70 -341 136 -408 39 -41 51 -48 85 -48 92 0 168 99 237 310
61 183 85 318 112 608 4 44 11 70 16 65 9 -9 4 -126 -21 -528 -24 -382 -24
-419 -6 -438 24 -23 217 -25 236 -2 14 17 26 143 40 420 5 110 15 275 21 367
11 149 14 169 34 190 32 34 52 81 74 173 43 176 53 627 17 741 -9 28 -27 63
-40 77 -23 25 -27 26 -152 26 -86 0 -134 -4 -145 -12 -30 -24 -68 -104 -88
-186 -11 -46 -22 -85 -24 -87 -2 -2 -10 21 -17 53 -32 143 -104 233 -188 233
-78 0 -171 -133 -233 -335 -17 -55 -32 -104 -34 -110 -2 -5 -4 13 -4 40 -1 75
-20 213 -37 272 -8 28 -28 70 -44 92 l-30 40 -159 0 c-137 0 -161 -3 -174 -17z
m152 -73 c36 -59 44 -172 31 -439 -6 -135 -15 -290 -20 -344 -5 -55 -7 -103
-4 -107 2 -4 0 -70 -6 -146 -5 -76 -14 -216 -20 -310 -5 -95 -15 -250 -22
-343 l-11 -170 -92 0 -92 0 3 53 c14 242 26 456 34 582 5 83 14 231 20 330 6
99 15 248 20 330 5 83 12 211 15 285 3 74 8 174 11 223 l6 87 54 0 c50 0 56
-2 73 -31z m167 23 c33 -21 54 -87 71 -216 16 -126 16 -143 0 -298 -16 -155
-36 -244 -74 -328 -26 -59 -41 -70 -95 -70 l-48 0 5 53 c3 28 10 144 16 257 5
113 12 250 15 305 5 92 -8 210 -31 283 -7 21 -5 22 61 22 38 0 74 -4 80 -8z
m444 -9 c40 -27 57 -50 78 -106 30 -80 40 -118 47 -172 4 -27 11 -66 15 -85 5
-19 14 -125 20 -235 9 -166 8 -230 -5 -375 -28 -322 -33 -353 -86 -545 -31
-116 -40 -138 -80 -222 -33 -67 -97 -133 -130 -133 -44 0 -99 47 -123 105 -20
48 -64 234 -71 304 -31 283 -14 730 35 956 41 183 40 181 86 305 47 127 120
218 174 220 9 0 27 -8 40 -17z m304 0 c-2 -10 -9 -106 -14 -213 -33 -614 -38
-690 -49 -690 -11 0 -31 46 -47 108 -34 128 -1 625 49 732 28 62 71 105 61 63z
m150 -28 c26 -53 33 -276 17 -540 -7 -104 -16 -271 -22 -370 -31 -592 -39
-740 -45 -832 l-7 -103 -94 0 -94 0 5 53 c3 28 8 124 11 212 3 88 10 219 15
290 5 72 14 216 20 320 6 105 15 260 20 345 6 85 15 238 20 340 6 102 13 218
16 258 l6 73 56 -3 c55 -3 57 -4 76 -43z m89 28 c28 -32 47 -146 47 -281 0
-157 -24 -426 -44 -493 -17 -57 -55 -129 -69 -129 -10 0 -1 254 14 414 19 202
7 443 -26 495 -11 19 60 13 78 -6z"/>
<path d="M6063 2288 c-62 -70 -112 -328 -99 -522 9 -153 46 -266 85 -266 23 0
71 54 71 79 0 9 4 21 9 27 8 9 18 46 42 154 17 77 18 362 1 425 -17 63 -33 97
-52 112 -22 18 -34 16 -57 -9z m51 -34 c8 -3 23 -29 33 -57 26 -74 25 -380 0
-482 -18 -70 -53 -151 -69 -162 -19 -11 -56 8 -66 34 -30 81 -35 127 -29 281
6 152 21 244 52 325 24 61 42 75 79 61z"/>
<path d="M1262 2887 c-47 -27 -112 -165 -112 -241 0 -18 -8 -53 -17 -77 -15
-38 -18 -85 -19 -340 -1 -245 -4 -300 -17 -320 -20 -32 -40 -313 -41 -569 0
-202 11 -285 51 -370 29 -62 46 -69 162 -70 l104 0 33 36 c19 19 34 43 34 52
0 9 11 27 24 41 38 39 55 127 68 336 10 163 9 212 -5 340 -10 93 -12 151 -6
153 23 8 38 35 43 75 14 121 28 501 23 623 -9 180 -34 272 -89 324 -19 17 -35
20 -117 20 -58 -1 -105 -6 -119 -13z"/>
<path d="M4999 2885 c-38 -21 -89 -124 -105 -213 -7 -42 -21 -111 -30 -152
-13 -61 -15 -123 -12 -331 2 -210 0 -259 -11 -273 -21 -25 -41 -285 -44 -551
-2 -256 12 -346 68 -419 l31 -41 111 -3 111 -3 31 38 c17 21 31 44 31 52 0 8
11 26 25 41 50 52 60 126 60 445 0 160 -3 311 -7 338 -6 36 -5 47 6 47 42 0
48 51 62 515 7 249 -5 364 -47 446 -36 72 -51 79 -158 79 -63 -1 -105 -6 -122
-15z m221 -65 c62 -62 76 -200 59 -597 l-13 -303 -25 0 c-25 0 -27 5 -45 83
-10 45 -21 87 -25 92 -4 6 -16 37 -25 70 -10 33 -31 98 -46 145 -15 47 -40
126 -56 175 -35 113 -68 169 -95 162 -10 -3 -19 -2 -19 1 0 26 50 140 71 163
26 28 31 29 113 29 72 0 89 -3 106 -20z m-238 -242 c17 -26 36 -80 98 -278 24
-74 57 -180 75 -235 18 -55 38 -131 44 -170 6 -38 15 -100 21 -136 16 -104 13
-454 -6 -566 -15 -98 -26 -123 -49 -123 -31 0 -43 32 -205 550 -84 269 -92
980 -10 980 10 0 24 -10 32 -22z m-77 -775 c9 -86 27 -167 65 -298 32 -110
134 -405 153 -443 19 -40 20 -46 6 -70 -14 -26 -18 -27 -116 -30 l-101 -3 -21
35 c-57 91 -68 278 -42 669 13 184 16 207 31 207 14 0 19 -13 25 -67z"/>
<path d="M2200 735 c-42 -45 -71 -172 -77 -340 -6 -166 6 -272 37 -323 49 -81
107 -2 139 189 16 89 10 364 -8 422 -12 37 -42 77 -59 77 -5 0 -19 -11 -32
-25z m49 -172 c34 -73 18 -291 -24 -348 -14 -17 -17 -18 -31 -4 -26 26 -39
139 -26 229 19 134 53 185 81 123z"/>
<path d="M2449 739 c-23 -43 -31 -86 -39 -209 -5 -69 -14 -164 -20 -213 -11
-89 -4 -192 19 -250 14 -36 46 -36 64 1 34 66 41 136 42 387 0 224 -2 254 -18
278 -21 33 -33 34 -48 6z m17 -207 c-12 -12 -18 8 -10 35 l8 28 4 -28 c2 -16
1 -31 -2 -35z m2 -240 c3 -57 -14 -105 -29 -81 -10 16 -12 83 -3 117 11 39 29
18 32 -36z"/>
<path d="M2675 748 c-2 -7 -16 -57 -30 -110 -22 -87 -24 -103 -13 -143 7 -25
16 -45 21 -45 9 0 1 -358 -9 -392 -4 -14 1 -18 19 -18 28 0 27 -9 47 415 14
297 14 305 -10 305 -11 0 -23 -6 -25 -12z"/>
<path d="M2861 728 c-21 -34 -38 -103 -43 -173 -3 -34 0 -40 16 -40 14 0 22
10 29 35 11 43 16 48 27 30 23 -35 3 -135 -55 -280 -25 -62 -36 -108 -41 -172
l-7 -88 67 0 c65 0 66 0 66 28 0 15 3 51 6 79 l7 53 -31 0 -31 0 19 54 c39
115 52 202 48 324 -5 161 -35 220 -77 150z"/>
<path d="M3067 551 c-28 -122 -51 -246 -54 -300 l-6 -91 41 0 42 0 -7 -60 c-6
-60 -6 -60 21 -60 24 0 26 3 26 48 0 26 7 182 15 347 8 165 15 306 15 313 0 6
-10 12 -22 12 -22 0 -26 -13 -71 -209z m33 -171 c0 -39 -3 -50 -16 -50 -10 0
-14 6 -11 14 3 8 9 31 13 50 9 50 14 45 14 -14z"/>
<path d="M3266 744 c-3 -9 -6 -47 -6 -85 0 -67 1 -69 25 -69 23 0 24 -2 14
-27 -6 -16 -13 -69 -16 -119 -6 -87 -5 -91 16 -97 18 -4 21 -12 21 -60 0 -90
-24 -122 -36 -47 -5 31 -11 40 -27 40 -19 0 -19 -5 -15 -93 6 -100 21 -147 48
-147 25 0 36 17 56 85 21 68 26 301 7 345 -8 19 -6 37 7 75 10 28 21 88 25
133 l7 82 -60 0 c-45 0 -61 -4 -66 -16z"/>
<path d="M3496 723 c-3 -21 -6 -59 -6 -85 0 -45 2 -48 26 -48 21 0 25 -4 19
-17 -13 -34 -25 -116 -25 -168 0 -44 3 -54 20 -58 17 -4 20 -13 20 -64 0 -72
-14 -100 -29 -60 -6 16 -11 35 -11 43 0 8 -9 14 -21 14 -21 0 -22 -3 -16 -88
7 -110 21 -154 51 -150 28 4 52 56 65 138 14 85 13 213 -3 270 -10 39 -9 53 6
100 11 30 22 90 25 133 l6 77 -60 0 -60 0 -7 -37z"/>
<path d="M3785 748 c-21 -58 -95 -422 -100 -495 l-8 -93 43 0 43 0 -7 -60 c-7
-59 -7 -60 19 -60 23 0 25 4 25 43 0 23 4 116 10 207 5 91 12 234 16 318 6
151 6 152 -15 152 -12 0 -24 -6 -26 -12z m-19 -415 c-15 -15 -21 8 -12 47 l11
45 3 -44 c2 -23 1 -45 -2 -48z"/>
<path d="M3926 698 c-3 -35 -8 -127 -11 -205 l-6 -142 38 -3 38 -3 3 -52 c3
-58 -14 -106 -29 -82 -5 8 -9 26 -9 42 0 20 -5 27 -19 27 -28 0 -32 -24 -21
-117 10 -94 22 -123 50 -123 42 0 73 117 74 275 0 126 -14 182 -50 195 -19 8
-24 17 -24 45 0 34 1 35 39 35 46 0 51 11 51 108 l0 62 -59 0 -59 0 -6 -62z"/>
<path d="M4213 752 c-28 -18 -63 -138 -63 -214 0 -21 5 -28 20 -28 14 0 22 11
30 40 15 54 30 41 30 -25 0 -59 -28 -158 -71 -254 -25 -54 -29 -77 -29 -147
l0 -84 65 0 65 0 0 80 c0 80 0 80 -26 80 -18 0 -25 4 -21 14 46 118 71 268 64
380 -7 124 -30 180 -64 158z"/>
<path d="M4380 736 c0 -12 -3 -51 -6 -85 l-7 -61 28 0 c22 0 26 -3 21 -17 -9
-22 -25 -147 -26 -190 0 -26 4 -33 20 -33 24 0 35 -48 23 -103 -10 -47 -26
-49 -33 -5 -4 25 -11 34 -29 36 l-24 4 6 -91 c17 -238 112 -183 125 72 3 65 0
136 -7 175 -11 60 -10 73 9 126 12 37 20 85 20 128 l0 68 -60 0 c-56 0 -60 -1
-60 -24z"/>
<path d="M4644 736 c-20 -31 -42 -114 -45 -174 -3 -42 -1 -47 19 -50 17 -3 22
2 22 18 0 12 5 31 11 42 9 17 13 18 20 7 22 -36 -2 -159 -59 -294 -21 -50 -32
-95 -37 -158 l-7 -87 65 0 64 0 7 37 c3 21 6 57 6 81 0 38 -2 42 -25 42 -14 0
-25 2 -25 5 0 3 11 44 25 91 48 165 52 376 10 441 -20 29 -31 29 -51 -1z"/>
</g>
</svg>
